#!OML:ASF F:\Work\Patient Classification 1\justin\Session 1\justin.ASF
:FULLY-SPECIFIED
:DEGREES
875
root -0.0163747 17.6779 -0.815048 -4.22079 54.2189 -3.47866
lowerback 14.7663 -2.00245 -3.48321
upperback 0.661536 -3.0207 2.35765
thorax -7.26904 -1.29731 5.11741
lowerneck -3.16636 -15.1421 -22.5335
upperneck 9.4569 -21.8491 21.9297
head 8.50928 -10.4524 8.29159
rclavicle -5.8716e-014 1.93815e-014
rhumerus -20.1999 -19.5961 -66.3468
rradius 146.121
rwrist -20.1407
rhand -12.9536 30.7952
rfingers 7.12502
rthumb 13.138 1.22905
lclavicle -5.8716e-014 1.93815e-014
lhumerus -13.5506 -30.6312 96.369
lradius 133.23
lwrist 10.0478
lhand -17.2618 6.90789
lfingers 7.12502
lthumb 8.98274 36.6967
rfemur -19.8894 -6.50995 8.53993
rtibia 41.0527
rfoot -4.83234 -6.59131
rtoes -30.6171
lfemur -3.30764 -3.15149 -5.23242
ltibia 37.923
lfoot -12.8475 -14.0958
ltoes -29.4215
876
root 0.00106031 17.598 -0.856841 -3.95672 53.5177 -3.04589
lowerback 14.838 -1.90827 -3.85003
upperback 0.667243 -2.95722 2.39424
thorax -7.28959 -1.25296 5.35766
lowerneck -3.44875 -15.0458 -23.0689
upperneck 9.83146 -21.7014 22.0317
head 8.72631 -10.3731 8.42189
rclavicle -5.57343e-014 -1.15295e-014
rhumerus -19.8649 -19.5003 -66.3063
rradius 145.729
rwrist -20.3159
rhand -12.9757 30.715
rfingers 7.12502
rthumb 13.1166 1.14748
lclavicle -5.57343e-014 -1.15295e-014
lhumerus -13.1416 -30.4152 96.3694
lradius 133.343
lwrist 10.0682
lhand -17.1674 7.04882
lfingers 7.12502
lthumb 9.0738 36.8336
rfemur -20.0765 -6.12624 8.13506
rtibia 41.3047
rfoot -5.87004 -6.04188
rtoes -28.8488
lfemur -3.08158 -2.49401 -5.42406
ltibia 38.2844
lfoot -13.8757 -15.1373
ltoes -28.0826
877
root 0.0242233 17.5309 -0.903539 -3.558 52.9672 -2.5696
lowerback 14.6703 -1.88024 -4.24205
upperback 0.766133 -2.97634 2.43508
thorax -7.0651 -1.25917 5.61506
lowerneck -3.80854 -14.9249 -23.4822
upperneck 10.0756 -21.5065 22.2496
head 8.90545 -10.2598 8.58299
rclavicle 1.24886e-013 -1.33186e-014
rhumerus -19.2481 -19.5034 -66.3494
rradius 145.138
rwrist -20.4184
rhand -13.0711 30.877
rfingers 7.12502
rthumb 13.0246 1.30365
lclavicle 1.24886e-013 -1.33186e-014
lhumerus -12.6238 -30.1443 96.2076
lradius 133.66
lwrist 10.4169
lhand -16.5398 7.69042
lfingers 7.12502
lthumb 9.6794 37.448
rfemur -20.3254 -6.17845 7.68972
rtibia 41.5455
rfoot -6.67768 -5.42017
rtoes -27.5423
lfemur -3.06265 -1.49391 -5.67828
ltibia 38.6445
lfoot -14.7935 -15.9758
ltoes -26.8864
878
root 0.0477055 17.4667 -0.957162 -2.99299 52.5389 -1.85463
lowerback 14.6047 -1.84916 -4.61104
upperback 0.81349 -3.00311 2.31712
thorax -6.96186 -1.26772 5.69759
lowerneck -4.10951 -14.9263 -23.2707
upperneck 10.2359 -21.4463 22.0097
head 8.93791 -10.2118 8.45958
rclavicle 8.28932e-014 1.86858e-014
rhumerus -18.8651 -19.6511 -66.5185
rradius 144.77
rwrist -20.3941
rhand -13.1081 30.7455
rfingers 7.12502
rthumb 12.989 1.1698
lclavicle 8.28932e-014 1.86858e-014
lhumerus -12.0445 -30.0475 95.9842
lradius 133.752
lwrist 10.9037
lhand -16.1444 8.04899
lfingers 7.12502
lthumb 10.0608 37.7885
rfemur -20.5085 -6.59477 7.05709
rtibia 41.7899
rfoot -7.17865 -4.65571
rtoes -26.6038
lfemur -3.0745 -0.190063 -6.14123
ltibia 39.0439
lfoot -15.721 -16.4272
ltoes -26.458
879
root 0.0648256 17.3952 -1.01309 -2.54611 51.9699 -1.23338
lowerback 14.938 -1.78564 -4.65314
upperback 0.599537 -2.97079 1.99433
thorax -7.39859 -1.23507 5.3953
lowerneck -4.10417 -14.9033 -22.9056
upperneck 10.551 -21.4468 21.7287
head 8.95759 -10.2067 8.31164
rclavicle 4.11609e-014 1.78906e-015
rhumerus -19.3293 -19.6951 -66.843
rradius 144.745
rwrist -20.2882
rhand -13.1836 30.915
rfingers 7.12502
rthumb 12.9162 1.33476
lclavicle 4.11609e-014 1.78906e-015
lhumerus -11.8346 -30.1296 95.7716
lradius 133.657
lwrist 11.1979
lhand -16.0972 8.03478
lfingers 7.12502
lthumb 10.1064 37.7721
rfemur -20.7955 -6.52631 6.3988
rtibia 42.058
rfoot -7.92156 -3.77734
rtoes -23.7318
lfemur -2.97277 0.955356 -6.59379
ltibia 39.5197
lfoot -16.4768 -16.66
ltoes -24.1412
880
root 0.0774085 17.3289 -1.06881 -2.20081 51.3813 -0.807624
lowerback 15.2687 -1.80104 -4.57986
upperback 0.397522 -3.02124 1.71427
thorax -7.81559 -1.24759 5.08841
lowerneck -4.2195 -14.8144 -22.7628
upperneck 10.9573 -21.3635 21.6438
head 9.06471 -10.1524 8.27949
rclavicle 2.7159e-014 -1.41137e-014
rhumerus -19.8845 -19.5222 -67.3639
rradius 144.826
rwrist -20.2345
rhand -13.3765 31.2014
rfingers 7.12502
rthumb 12.7302 1.60944
lclavicle 2.7159e-014 -1.41137e-014
lhumerus -11.7098 -29.9803 95.3869
lradius 133.794
lwrist 11.599
lhand -15.4503 8.56527
lfingers 7.12502
lthumb 10.7304 38.2712
rfemur -21.2427 -6.46928 5.90392
rtibia 42.3194
rfoot -8.60547 -2.91369
rtoes -18.2562
lfemur -2.99431 2.20965 -6.94881
ltibia 40.0076
lfoot -17.4491 -16.6502
ltoes -22.7014
881
root 0.0906578 17.2721 -1.12399 -1.80614 50.877 -0.342801
lowerback 15.3397 -1.87528 -4.70402
upperback 0.427365 -3.15292 1.60427
thorax -7.80727 -1.30966 5.07001
lowerneck -4.69362 -14.9097 -22.305
upperneck 11.0952 -21.3426 20.9764
head 9.04148 -10.1244 7.94354
rclavicle -3.99433e-014 -2.10712e-014
rhumerus -20.0123 -19.3377 -67.9416
rradius 144.896
rwrist -20.3984
rhand -13.3306 31.144
rfingers 7.12502
rthumb 12.7745 1.55483
lclavicle -3.99433e-014 -2.10712e-014
lhumerus -11.2566 -29.62 94.9192
lradius 134.066
lwrist 12.2557
lhand -14.2382 9.80857
lfingers 7.12502
lthumb 11.8994 39.4504
rfemur -21.6566 -6.97998 5.53133
rtibia 42.5642
rfoot -8.88529 -2.37413
rtoes -17.3442
lfemur -3.05809 3.67374 -7.33941
ltibia 40.3896
lfoot -18.6695 -16.1874
ltoes -23.2627
882
root 0.107577 17.2206 -1.17578 -1.38097 50.2721 0.287273
lowerback 15.3942 -1.85064 -4.99838
upperback 0.498013 -3.18251 1.48271
thorax -7.74904 -1.31883 5.11234
lowerneck -5.16068 -14.8475 -22.902
upperneck 11.4933 -21.2707 21.4688
head 9.38476 -10.0529 8.20015
rclavicle 3.04141e-014 -1.2424e-014
rhumerus -20.2424 -19.2884 -68.3899
rradius 144.964
rwrist -20.6368
rhand -13.1424 31.3765
rfingers 7.12502
rthumb 12.956 1.7987
lclavicle 3.04141e-014 -1.2424e-014
lhumerus -10.874 -29.4461 94.7325
lradius 134.073
lwrist 12.3498
lhand -13.4786 10.471
lfingers 7.12502
lthumb 12.6318 40.069
rfemur -22.0104 -7.23677 4.98701
rtibia 42.7691
rfoot -9.24949 -1.88494
rtoes -19.1305
lfemur -2.82103 4.87414 -7.90612
ltibia 40.5521
lfoot -19.8318 -15.2964
ltoes -23.6501
883
root 0.129952 17.1781 -1.21566 -1.08973 49.7378 0.885682
lowerback 15.4457 -1.79623 -5.32717
upperback 0.559327 -3.18263 1.31575
thorax -7.70367 -1.3128 5.11933
lowerneck -4.55668 -14.5794 -22.9423
upperneck 10.8889 -21.0058 22.0025
head 9.08894 -9.95603 8.49332
rclavicle 1.23681e-014 -4.37326e-015
rhumerus -20.6636 -19.2649 -68.7475
rradius 145.121
rwrist -20.6782
rhand -13.1552 31.4604
rfingers 7.12502
rthumb 12.9436 1.88181
lclavicle 1.23681e-014 -4.37326e-015
lhumerus -10.7428 -29.5287 94.6661
lradius 133.813
lwrist 11.6675
lhand -13.778 10.0134
lfingers 7.12502
lthumb 12.3432 39.6291
rfemur -22.1694 -7.41758 4.42606
rtibia 42.9141
rfoot -9.99166 -1.49608
rtoes -26.1947
lfemur -2.34519 5.70824 -8.51927
ltibia 40.4862
lfoot -20.8462 -14.5239
ltoes -23.2204
